<?xml version="1.0" encoding="UTF-8" standalone="no"?>
<!-- Created with Inkscape (http://www.inkscape.org/) -->

<svg
   width="132.29161mm"
   height="43.843502mm"
   viewBox="0 0 132.29161 43.843502"
   version="1.1"
   id="svg1"
   inkscape:version="1.4 (86a8ad7, 2024-10-11)"
   sodipodi:docname="AOL logo.svg"
   xmlns:inkscape="http://www.inkscape.org/namespaces/inkscape"
   xmlns:sodipodi="http://sodipodi.sourceforge.net/DTD/sodipodi-0.dtd"
   xmlns="http://www.w3.org/2000/svg"
   xmlns:svg="http://www.w3.org/2000/svg">
  <sodipodi:namedview
     id="namedview1"
     pagecolor="#ffffff"
     bordercolor="#000000"
     borderopacity="0.25"
     inkscape:showpageshadow="2"
     inkscape:pageopacity="0.0"
     inkscape:pagecheckerboard="0"
     inkscape:deskcolor="#d1d1d1"
     inkscape:document-units="mm"
     inkscape:zoom="1.9729351"
     inkscape:cx="169.29092"
     inkscape:cy="79.830301"
     inkscape:window-width="1920"
     inkscape:window-height="1001"
     inkscape:window-x="-9"
     inkscape:window-y="-9"
     inkscape:window-maximized="1"
     inkscape:current-layer="layer1" />
  <defs
     id="defs1">
    <clipPath
       clipPathUnits="userSpaceOnUse"
       id="clipPath12">
      <path
         d="M 0,0 H 595.275 V 841.89 H 0 Z"
         transform="matrix(0.9611701,0,0,-0.98024274,-74.150044,754.23244)"
         id="path12" />
    </clipPath>
    <clipPath
       clipPathUnits="userSpaceOnUse"
       id="clipPath8">
      <path
         d="M 0,0 H 595.275 V 841.89 H 0 Z"
         transform="matrix(0.9611701,0,0,-0.98024274,-122.28094,753.89504)"
         id="path8" />
    </clipPath>
    <clipPath
       clipPathUnits="userSpaceOnUse"
       id="clipPath10">
      <path
         d="M 0,0 H 595.275 V 841.89 H 0 Z"
         transform="matrix(0.9611701,0,0,-0.98024274,-176.11875,768.33684)"
         id="path10" />
    </clipPath>
  </defs>
  <g
     inkscape:label="Layer 1"
     inkscape:groupmode="layer"
     id="layer1"
     transform="translate(-27.745786,-126.45817)">
    <path
       id="path7"
       d="m 0,0 c 10.185,0 17.344,-2.244 17.344,-13.771 v -10.516 c 0,-11.414 -7.159,-13.657 -17.344,-13.657 -10.075,0 -17.231,2.243 -17.231,13.657 v 10.516 C -17.231,-2.244 -10.075,0 0,0 m 0,-8.738 c -5.146,0 -6.825,-0.55 -6.942,-6.037 v -8.396 c 0.117,-5.607 1.796,-6.154 6.942,-6.154 5.263,0 7.05,0.547 7.05,6.154 v 8.396 c 0,5.487 -1.787,6.037 -7.05,6.037"
       style="fill:#000000;fill-opacity:1;fill-rule:nonzero;stroke:none;stroke-width:0.311464"
       transform="matrix(1.1784011,0,0,1.1554729,96.594891,170.30143)"
       clip-path="url(#clipPath8)" />
    <path
       id="path9"
       d="m 0,0 v 1.116 c 0,4.038 -0.104,7.731 -3.468,10.523 -3.365,2.803 -7.499,2.803 -11.87,2.803 -10.07,0 -17.458,-0.566 -17.458,-14.217 V -9.4 c 0,-12.319 6.604,-14.102 17.458,-14.102 10.3,0 15.11,1.007 15.234,12.189 v 1.468 H -10.3 v -1.468 c -0.335,-3.234 -2.682,-3.57 -6.043,-3.57 -5.705,0 -6.269,1.789 -6.269,7.05 v 5.928 c 0,5.489 0.23,7.609 6.269,7.609 4.146,0 6.043,-0.223 6.043,-4.588 L -10.3,0 Z"
       style="fill:#000000;fill-opacity:1;fill-rule:nonzero;stroke:none;stroke-width:0.311464"
       transform="matrix(1.1784011,0,0,1.1554729,160.03739,153.61433)"
       clip-path="url(#clipPath10)" />
    <path
       id="path11"
       d="m 0,0 10.863,-23.611 c 1.788,-3.808 2.787,-5.042 6.603,-5.042 V -18.248 -9.516 0 h 9.957 V -37.265 H 16.234 c -9.288,0 -11.088,3.911 -15.553,13.654 L -10.295,0 Z"
       style="fill:#000000;fill-opacity:1;fill-rule:nonzero;stroke:none;stroke-width:0.311464"
       transform="matrix(1.1784011,0,0,1.1554729,39.877425,169.91156)"
       clip-path="url(#clipPath12)" />
  </g>
</svg>
