<?xml version="1.0" encoding="utf-8"?>
<!-- Generator: Adobe Illustrator 17.0.0, SVG Export Plug-In . SVG Version: 6.00 Build 0)  -->
<!DOCTYPE svg PUBLIC "-//W3C//DTD SVG 1.1//EN" "http://www.w3.org/Graphics/SVG/1.1/DTD/svg11.dtd">
<svg version="1.1" id="Layer_1" xmlns="http://www.w3.org/2000/svg" xmlns:xlink="http://www.w3.org/1999/xlink" x="0px" y="0px"
	 width="400px" height="200px" viewBox="0 0 400 200" enable-background="new 0 0 400 200" xml:space="preserve">
<g>
	<path d="M309.624,102.229c-3.747,0-6.649,2.915-6.649,6.651c0,3.738,2.902,6.651,6.649,6.651c3.756,0,6.662-2.913,6.662-6.651
		C316.286,105.144,313.379,102.229,309.624,102.229 M309.624,114.588c-3.219,0-5.615-2.528-5.615-5.708
		c0-3.183,2.396-5.704,5.615-5.704c3.212,0,5.615,2.521,5.615,5.704C315.238,112.061,312.835,114.588,309.624,114.588
		 M312.668,107.164c0-1.377-0.773-2.131-2.512-2.131h-2.942v7.69h0.945v-3.413h1.594l2.16,3.413h1.119l-2.294-3.413
		C311.777,109.132,312.668,108.517,312.668,107.164 M309.414,108.506h-1.255v-2.663h1.734c0.932,0,1.828,0.247,1.828,1.322
		C311.721,108.463,310.575,108.506,309.414,108.506"/>
	<path d="M138.368,145.127h16.748c7.093,0,8.8,4.224,8.8,7.579c0,5.3-2.791,8.439-8.274,8.439h-10.505v8.907h-6.769V145.127
		 M145.137,156.616h7.255c2.104,0,4.543-0.073,4.543-3.421c0-3.248-1.993-3.531-3.903-3.531h-7.895V156.616z"/>
	<path d="M167.447,145.125h18.124c6.912,0,8.055,4.226,8.055,6.772c0,3.04-1.215,4.991-4.052,6.007v0.067
		c2.973,0.452,3.43,4.222,3.43,6.665c0,1.222,0.103,4.155,1.293,5.416h-7.414c-0.624-1.152-0.649-2.171-0.649-4.786
		c0-3.493-1.5-4.364-3.602-4.364h-8.408v9.15h-6.778V145.125 M174.226,156.161h8.967c1.505,0,3.245-0.843,3.245-3.181
		c0-2.481-1.953-3.105-3.598-3.105h-8.615V156.161z"/>
	<path d="M211.299,144.43c13.412,0,15.493,7.96,15.493,13.158c0,5.207-2.082,13.164-15.493,13.164
		c-13.394,0-15.491-7.957-15.491-13.164C195.808,152.389,197.906,144.43,211.299,144.43 M211.299,165.997
		c6.147,0,8.307-4.531,8.307-8.41c0-3.87-2.16-8.412-8.307-8.412c-6.136,0-8.303,4.543-8.303,8.412
		C202.996,161.466,205.163,165.997,211.299,165.997"/>
	<path d="M257.717,164.916h-11.446l-2.019,5.136h-7.295l10.962-24.926h8.167l10.958,24.926h-7.295L257.717,164.916z M252,150.499
		l-3.91,9.883h7.817L252,150.499z"/>
	<path d="M268.659,145.127h6.776v14.306c0,2.45,0.107,6.564,6.312,6.564c6.212,0,6.308-4.115,6.308-6.564v-14.306h6.776v15.988
		c0,2.784-0.345,9.636-13.084,9.636c-12.736,0-13.088-6.852-13.088-9.636V145.127"/>
	<path d="M299.31,145.125h15.54c8.548,0,12.244,4.957,12.244,12.46c0,7.507-3.832,12.467-11.655,12.467H299.31V145.125
		 M306.081,165.3h7.545c4.465,0,6.491-2.686,6.491-7.955c0-4.605-1.955-7.469-7.113-7.469h-6.923V165.3z"/>
	<rect x="330.986" y="145.127" width="6.776" height="24.924"/>
	<path d="M356.61,144.43c13.398,0,15.496,7.96,15.496,13.158c0,5.207-2.098,13.164-15.496,13.164
		c-13.405,0-15.498-7.957-15.498-13.164C341.112,152.389,343.205,144.43,356.61,144.43 M356.61,165.997
		c6.139,0,8.307-4.531,8.307-8.41c0-3.87-2.169-8.412-8.307-8.412c-6.145,0-8.31,4.543-8.31,8.412
		C348.3,161.466,350.464,165.997,356.61,165.997"/>
	<polygon points="255.114,30.897 206.187,82.029 255.114,132.999 210.486,132.999 171.834,92.129 171.834,132.999 138.469,132.999 
		138.469,30.897 171.834,30.897 171.834,71.928 210.486,30.897 	"/>
	<path d="M100.268,67.423h-0.027l-0.031-0.024H48.173l-0.314,0.004c-2.911,0-5.267-2.349-5.267-5.26
		c0-2.253,1.418-4.161,3.406-4.915c0.678-0.261,1.743-0.345,1.866-0.345h84.758V30.898H37.906l-0.105,0.016l-0.125-0.002
		c-18.032,0-32.645,14.617-32.645,32.648c0,18.035,14.613,32.652,32.645,32.652c0.368,0,0.691-0.02,1.028-0.033l0.129,0.02h52.133
		c0.542,0,1.558,0.091,2.456,0.468l0.04,0.016l0.495,0.265c1.609,0.9,2.713,2.603,2.713,4.58c0,2.657-1.97,4.83-4.529,5.191
		l-0.798,0.08H7.084V133h92.027l0.218-0.022c0.31,0.011,0.602,0.022,0.938,0.022c18.11,0,32.788-14.68,32.788-32.788
		C133.056,82.104,118.378,67.423,100.268,67.423"/>
	<path d="M364.17,30.899l-0.341,0.009l-0.06-0.013H258.845v102.102h36.04V56.726h60.146l0.018,0.002l0.04-0.002
		c2.918,0,5.283,2.365,5.283,5.283c0,2.701-2.035,4.904-4.65,5.22l-0.845,0.016h-52.994v28.928h60.461
		c0.566,0.036,1.164,0.062,1.826,0.062c18.055,0,32.679-14.62,32.679-32.665C396.849,45.519,382.225,30.899,364.17,30.899"/>
	<path fill="#FCDA00" d="M7.084,170.689v-26.192h92.027l0.218,0.02c0.31-0.009,0.602-0.02,0.938-0.02
		c15.85,0,29.072,11.245,32.124,26.192H7.084"/>
</g>
</svg>
